# xmcd
#
# Track frame offsets:
#	150
#	21040
#	43913
#	69283
#	95153
#	119117
#	154378
#	181513
#	201115
#	233126
#	263567
#	283826
#	302461
#
# Disc length: 4383 seconds
#
# Revision: 0
# Processed by: cddbd v1.5.1PL2 Copyright (c) Steve Scherf et al.
# Submitted via: dBpowerAMP V4.0
#
DISCID=b3111d0d
DTITLE=Islandjon - Feel What I Feel
DYEAR=1900
DGENRE=Pop
TTITLE0=She`s Back
TTITLE1=Fisherman
TTITLE2=Lost
TTITLE3=Summerbreeze
TTITLE4=Friends For All Time
TTITLE5=Look At Life
TTITLE6=Island Boy
TTITLE7=Drift Away
TTITLE8=If You Can Feel What I Feel
TTITLE9=Shake Your Bam Bam
TTITLE10=Sun You Bum
TTITLE11=Friend`s
TTITLE12=Sanibel Harbour Sunset
EXTD=
EXTT0=
EXTT1=
EXTT2=
EXTT3=
EXTT4=
EXTT5=
EXTT6=
EXTT7=
EXTT8=
EXTT9=
EXTT10=
EXTT11=
EXTT12=
PLAYORDER=
